<svg xmlns:xlink="http://www.w3.org/1999/xlink" width="510" height="110" viewBox="0 0 380 82" fill="none" xmlns="http://www.w3.org/2000/svg"><path d="M146.925 81.2371C143.135 81.2737 139.377 80.5474 135.875 79.1015C132.565 77.7229 129.575 75.6794 127.091 73.098C124.578 70.4632 122.607 67.3624 121.29 63.9711C119.872 60.3283 119.162 56.4493 119.199 52.5415C119.161 48.5636 119.888 44.6154 121.339 40.9103C122.705 37.4281 124.729 34.2399 127.3 31.519C129.874 28.8005 132.983 26.6417 136.432 25.1777C139.881 23.7138 143.595 22.9762 147.343 23.0112C151.122 22.9721 154.866 23.7381 158.324 25.2581C161.6 26.7011 164.51 28.8569 166.843 31.5677C169.198 34.3044 170.87 37.5582 171.723 41.0633L157.78 43.7763C156.845 41.5603 155.328 39.6374 153.388 38.2111C151.545 36.863 149.315 36.1434 147.03 36.159C144.647 36.1187 142.316 36.8511 140.386 38.2459C138.398 39.7489 136.843 41.7474 135.875 44.0407C134.73 46.6536 134.159 49.4812 134.202 52.3328C134.147 55.1304 134.699 57.9068 135.819 60.4719C136.802 62.7054 138.375 64.6294 140.372 66.0371C142.322 67.3966 144.65 68.1141 147.03 68.0893C149.439 68.1281 151.805 67.45 153.827 66.1415C155.881 64.78 157.454 62.8089 158.324 60.5067L172.267 63.2198C171.418 66.7971 169.671 70.1005 167.192 72.8197C164.711 75.5378 161.659 77.6757 158.254 79.0806C154.662 80.5524 150.808 81.2859 146.925 81.2371Z" fill="#222222"></path><path d="M203.279 81.2373C199.332 81.277 195.417 80.5318 191.767 79.046C188.311 77.6423 185.177 75.5631 182.555 72.9331C179.933 70.3032 177.876 67.1768 176.507 63.7417C175.037 60.043 174.305 56.098 174.353 52.1244C174.309 48.1747 175.063 44.256 176.571 40.5975C178.001 37.1521 180.096 34.0144 182.739 31.3593C185.387 28.7108 188.548 26.617 192.034 25.2028C195.737 23.7136 199.704 22.9686 203.702 23.0115C207.642 22.9746 211.55 23.7198 215.194 25.2028C218.644 26.617 221.773 28.6999 224.395 31.3285C227.017 33.9571 229.079 37.078 230.46 40.5071C231.931 44.1767 232.665 48.0942 232.622 52.0409C232.661 56.0084 231.908 59.9446 230.403 63.6235C228.981 67.0891 226.883 70.2447 224.228 72.9104C221.58 75.5589 218.419 77.6527 214.933 79.0669C211.233 80.5462 207.271 81.284 203.279 81.2373ZM203.491 68.0895C206.043 68.1242 208.546 67.3968 210.673 66.0026C212.822 64.5731 214.554 62.6108 215.694 60.3122C216.959 57.7669 217.592 54.9598 217.539 52.1244C217.591 49.2891 216.959 46.4822 215.694 43.9366C214.554 41.638 212.822 39.6757 210.673 38.2462C208.531 36.8838 206.038 36.1593 203.491 36.1593C200.943 36.1593 198.45 36.8838 196.308 38.2462C194.162 39.6767 192.433 41.6389 191.295 43.9366C190.027 46.4817 189.393 49.2885 189.443 52.1244C189.392 54.9604 190.027 57.7674 191.295 60.3122C192.433 62.6099 194.162 64.5722 196.308 66.0026C198.435 67.3968 200.938 68.1242 203.491 68.0895Z" fill="#222222"></path><path d="M251.309 79.5154L230.54 24.3867H246.589L258.967 64.0626L271.554 24.3867H287.079L266.302 79.5154H251.309Z" fill="#222222"></path><path d="M313.403 81.2377C309.494 81.2794 305.614 80.5536 301.989 79.1021C298.597 77.73 295.533 75.6683 292.994 73.0499C290.427 70.3742 288.425 67.2169 287.104 63.7631C285.672 60.0132 284.958 56.0306 285.001 52.0206C284.967 48.0973 285.681 44.203 287.104 40.5425C288.427 37.1175 290.411 33.9818 292.944 31.3113C295.423 28.7062 298.41 26.6282 301.722 25.2035C305.177 23.7241 308.905 22.9777 312.667 23.0122C316.47 22.9624 320.244 23.6721 323.766 25.0992C327.022 26.4424 329.945 28.4718 332.333 31.0469C334.771 33.7137 336.649 36.8352 337.858 40.2294C339.196 44.0527 339.854 48.078 339.8 52.125V55.7771H299.942C300.573 59.9046 302.08 63.1277 304.464 65.4465C305.657 66.6018 307.073 67.5055 308.628 68.1033C310.182 68.701 311.842 68.9805 313.508 68.9248C315.924 68.9522 318.303 68.3398 320.4 67.1509C322.518 65.9146 324.275 64.1524 325.497 62.0379L338.643 66.2118C337.414 69.296 335.468 72.0489 332.964 74.2465C330.377 76.5107 327.379 78.2649 324.13 79.4151C320.689 80.6408 317.059 81.2577 313.403 81.2377ZM312.702 34.2817C311.203 34.244 309.711 34.5013 308.313 35.0386C306.915 35.5759 305.637 36.3825 304.555 37.4121C302.344 39.499 300.888 42.3511 300.187 45.9685H324.691C324.13 42.3511 322.782 39.499 320.646 37.4121C319.598 36.3817 318.351 35.5729 316.98 35.0348C315.608 34.4967 314.141 34.2405 312.667 34.2817H312.702Z" fill="#222222"></path><path d="M377.354 24.1703C377.015 24.0972 376.676 24.0094 376.307 23.9509C375.32 23.7753 374.347 23.6875 373.36 23.6875C370.132 23.6875 367.331 24.4776 364.958 26.0284C362.571 27.5939 360.684 29.8324 359.284 32.7585L358.753 24.419H345.193V79.5036H359.903V52.4807C359.903 47.9598 360.994 44.4631 363.16 41.9905C365.327 39.5179 368.452 38.2889 372.519 38.2889C373.36 38.2889 374.185 38.3475 374.981 38.4499C375.777 38.5523 376.573 38.7425 377.339 39.0205V24.1703H377.354Z" fill="#222222"></path><path d="M25.58 81.2383C22.0881 81.2725 18.6336 80.5233 15.475 79.047C12.3817 77.5829 9.62337 75.5067 7.36998 72.9461C5.00766 70.2601 3.16841 67.1631 1.94558 63.8121C0.619396 60.1658 -0.0388835 56.314 0.00177462 52.4382C-0.0375934 48.4896 0.63984 44.5663 2.00172 40.8555C3.27381 37.4259 5.17738 34.2603 7.61559 31.5198C9.95431 28.8767 12.822 26.7446 16.0364 25.2589C19.2887 23.7595 22.8353 22.9922 26.422 23.012C29.8601 22.9625 33.2577 23.7508 36.3165 25.3076C39.248 26.824 41.7462 29.0492 43.5794 31.7772L44.0005 24.5772H57.579V79.673H44.0005L43.5794 71.6382C41.7131 74.5942 39.1007 77.0161 36.0007 78.6643C32.8038 80.3852 29.2176 81.271 25.58 81.2383ZM29.0535 68.0904C31.597 68.1251 34.0917 67.3977 36.2112 66.0034C38.3505 64.573 40.0734 62.6107 41.2076 60.313C42.4712 57.7682 43.1039 54.9611 43.0531 52.1251C43.1031 49.2892 42.4705 46.4823 41.2076 43.9373C40.0734 41.6395 38.3505 39.6772 36.2112 38.2468C34.0917 36.8525 31.597 36.1252 29.0535 36.1598C26.5101 36.1252 24.0154 36.8525 21.8959 38.2468C19.754 39.6763 18.0286 41.6387 16.8925 43.9373C15.6318 46.4828 15.0015 49.2897 15.054 52.1251C15.0007 54.9606 15.631 57.7677 16.8925 60.313C18.0286 62.6116 19.754 64.5739 21.8959 66.0034C24.0154 67.3977 26.5101 68.1251 29.0535 68.0904Z" fill="#FF385C"></path><path d="M80.224 9.29417C80.2552 10.8092 79.8686 12.3042 79.1052 13.6198C78.3694 14.8696 77.3054 15.9011 76.0252 16.6058C74.7088 17.3242 73.2287 17.701 71.7239 17.701C70.219 17.701 68.7389 17.3242 67.4225 16.6058C66.1423 15.9011 65.0783 14.8696 64.3425 13.6198C63.5878 12.3138 63.2038 10.8317 63.2308 9.32905C63.2038 7.82643 63.5878 6.34434 64.3425 5.03834C65.0768 3.78912 66.1413 2.75954 67.4225 2.05926C68.7374 1.33646 70.2181 0.957031 71.7239 0.957031C73.2296 0.957031 74.7103 1.33646 76.0252 2.05926C77.3064 2.75954 78.3709 3.78912 79.1052 5.03834C79.8562 6.33342 80.2425 7.80269 80.224 9.29417ZM64.2929 79.5153V24.2593H79.1619V79.5153H64.2929Z" fill="#FF385C"></path><path d="M118.128 24.1684C117.789 24.0952 117.45 24.0074 117.082 23.9489C116.094 23.7733 115.122 23.6855 114.134 23.6855C110.906 23.6855 108.106 24.4756 105.733 26.0265C103.345 27.5919 101.458 29.8304 100.058 32.7566L99.5277 24.4171H85.9678V79.5017H100.677V52.4788C100.677 47.9579 101.768 44.4611 103.935 41.9886C106.101 39.516 109.226 38.287 113.294 38.287C114.134 38.287 114.959 38.3455 115.755 38.4479C116.551 38.5503 117.347 38.7405 118.114 39.0185V24.1684H118.128Z" fill="#FF385C"></path></svg>